<svg width="40" height="40" viewBox="0 0 40 40" fill="none" xmlns="http://www.w3.org/2000/svg">
<path d="M30.0001 3.33331H10.0001C8.15913 3.33331 6.66675 4.8257 6.66675 6.66665V33.3333C6.66675 35.1743 8.15913 36.6666 10.0001 36.6666H30.0001C31.841 36.6666 33.3334 35.1743 33.3334 33.3333V6.66665C33.3334 4.8257 31.841 3.33331 30.0001 3.33331Z" stroke="#D79D40" stroke-width="2" stroke-linecap="round" stroke-linejoin="round"/>
<path d="M15 36.6667V30H25V36.6667" stroke="#D79D40" stroke-width="2" stroke-linecap="round" stroke-linejoin="round"/>
<path d="M13.3333 10H13.3501" stroke="#D79D40" stroke-width="2" stroke-linecap="round" stroke-linejoin="round"/>
<path d="M26.6667 10H26.6836" stroke="#D79D40" stroke-width="2" stroke-linecap="round" stroke-linejoin="round"/>
<path d="M20 10H20.0169" stroke="#D79D40" stroke-width="2" stroke-linecap="round" stroke-linejoin="round"/>
<path d="M20 16.6667H20.0169" stroke="#D79D40" stroke-width="2" stroke-linecap="round" stroke-linejoin="round"/>
<path d="M20 23.3333H20.0169" stroke="#D79D40" stroke-width="2" stroke-linecap="round" stroke-linejoin="round"/>
<path d="M26.6667 16.6667H26.6836" stroke="#D79D40" stroke-width="2" stroke-linecap="round" stroke-linejoin="round"/>
<path d="M26.6667 23.3333H26.6836" stroke="#D79D40" stroke-width="2" stroke-linecap="round" stroke-linejoin="round"/>
<path d="M13.3333 16.6667H13.3501" stroke="#D79D40" stroke-width="2" stroke-linecap="round" stroke-linejoin="round"/>
<path d="M13.3333 23.3333H13.3501" stroke="#D79D40" stroke-width="2" stroke-linecap="round" stroke-linejoin="round"/>
</svg>
