<svg width="40" height="40" viewBox="0 0 40 40" fill="none" xmlns="http://www.w3.org/2000/svg">
<path d="M24.9249 12.2L27.3074 21.7275C25.3974 22.195 22.8499 22.5 19.9999 22.5C17.1499 22.5 14.6049 22.195 12.6924 21.7275L15.0749 12.2C16.5874 12.3925 18.2499 12.5 19.9999 12.5C21.7499 12.5 23.4124 12.3925 24.9249 12.2ZM24.3124 9.75502L22.4249 2.20002C21.7949 -0.324976 18.2049 -0.324976 17.5749 2.20002L15.6874 9.75002C16.9999 9.91252 18.4549 10 19.9999 10C21.5449 10 22.9999 9.91002 24.3124 9.75502ZM35.3024 31.2875C35.5654 31.3527 35.8002 31.5015 35.9713 31.7117C36.1424 31.9219 36.2406 32.1819 36.251 32.4527C36.2615 32.7236 36.1836 32.9904 36.0292 33.2131C35.8748 33.4358 35.6522 33.6023 35.3949 33.6875L20.3949 38.6875C20.1385 38.7729 19.8613 38.7729 19.6049 38.6875L4.60488 33.6875C4.34761 33.6023 4.12499 33.4358 3.97057 33.2131C3.81615 32.9904 3.73829 32.7236 3.74873 32.4527C3.75917 32.1819 3.85733 31.9219 4.02844 31.7117C4.19954 31.5015 4.43431 31.3527 4.69738 31.2875L10.6749 29.7925L12.0874 24.15C14.2424 24.68 16.9974 24.9975 19.9999 24.9975C23.0024 24.9975 25.7574 24.68 27.9124 24.15L29.3249 29.7925L35.3024 31.2875Z" fill="#D79D40"/>
</svg>
