<svg width="762" height="461" viewBox="0 0 762 461" fill="none" xmlns="http://www.w3.org/2000/svg">
<rect x="192.5" y="50.5" width="49" height="380" rx="11.5" stroke="white"/>
<rect x="256.5" y="50.5" width="49" height="380" rx="11.5" stroke="white"/>
<rect x="241.5" y="150.5" width="15" height="16" stroke="white"/>
<rect x="177.5" y="150.5" width="15" height="16" stroke="white"/>
<rect x="241.5" y="364.5" width="15" height="16" stroke="white"/>
<rect x="177.5" y="364.5" width="15" height="16" stroke="white"/>
<rect x="64.5" y="50.5" width="49" height="380" rx="11.5" stroke="white"/>
<rect x="128.5" y="50.5" width="49" height="380" rx="11.5" stroke="white"/>
<rect x="113.5" y="150.5" width="15" height="16" stroke="white"/>
<rect x="49.5" y="150.5" width="15" height="16" stroke="white"/>
<rect x="113.5" y="364.5" width="15" height="16" stroke="white"/>
<rect x="49.5" y="364.5" width="15" height="16" stroke="white"/>
<rect x="448.5" y="50.5" width="49" height="380" rx="11.5" stroke="white"/>
<rect x="512.5" y="50.5" width="49" height="380" rx="11.5" stroke="white"/>
<rect x="497.5" y="150.5" width="15" height="16" stroke="white"/>
<rect x="433.5" y="150.5" width="15" height="16" stroke="white"/>
<rect x="497.5" y="364.5" width="15" height="16" stroke="white"/>
<rect x="433.5" y="364.5" width="15" height="16" stroke="white"/>
<rect x="320.5" y="50.5" width="49" height="380" rx="11.5" stroke="white"/>
<rect x="384.5" y="50.5" width="49" height="380" rx="11.5" stroke="white"/>
<rect x="369.5" y="150.5" width="15" height="16" stroke="white"/>
<rect x="305.5" y="150.5" width="15" height="16" stroke="white"/>
<rect x="369.5" y="364.5" width="15" height="16" stroke="white"/>
<rect x="305.5" y="364.5" width="15" height="16" stroke="white"/>
<rect x="704.5" y="50.5" width="49" height="380" rx="11.5" stroke="white"/>
<rect x="753.5" y="150.5" width="15" height="16" stroke="white"/>
<rect x="689.5" y="150.5" width="15" height="16" stroke="white"/>
<rect x="753.5" y="364.5" width="15" height="16" stroke="white"/>
<rect x="689.5" y="364.5" width="15" height="16" stroke="white"/>
<rect x="576.5" y="50.5" width="49" height="380" rx="11.5" stroke="white"/>
<rect x="640.5" y="50.5" width="49" height="380" rx="11.5" stroke="white"/>
<rect x="625.5" y="150.5" width="15" height="16" stroke="white"/>
<rect x="561.5" y="150.5" width="15" height="16" stroke="white"/>
<rect x="625.5" y="364.5" width="15" height="16" stroke="white"/>
<rect x="561.5" y="364.5" width="15" height="16" stroke="white"/>
<path d="M0.5 4.99999C0.5 2.51471 2.51472 0.5 5 0.5H45C47.4853 0.5 49.5 2.51472 49.5 5V460.5H0.5V4.99999Z" stroke="white"/>
</svg>
