<svg width="40" height="40" viewBox="0 0 40 40" fill="none" xmlns="http://www.w3.org/2000/svg">
<path d="M6.66659 5L3.33325 8.33333V33.3333C3.33325 34.3333 3.99992 35 4.99992 35H8.33325C9.33325 35 9.99992 34.3333 9.99992 33.3333V8.33333L6.66659 5Z" stroke="#D79D40" stroke-width="2" stroke-linecap="round" stroke-linejoin="round"/>
<path d="M10 13.3333H16.6667" stroke="#D79D40" stroke-width="2" stroke-linecap="round" stroke-linejoin="round"/>
<path d="M10 30H16.6667" stroke="#D79D40" stroke-width="2" stroke-linecap="round" stroke-linejoin="round"/>
<path d="M20.0001 5L16.6667 8.33333V33.3333C16.6667 34.3333 17.3334 35 18.3334 35H21.6667C22.6667 35 23.3334 34.3333 23.3334 33.3333V8.33333L20.0001 5Z" stroke="#D79D40" stroke-width="2" stroke-linecap="round" stroke-linejoin="round"/>
<path d="M23.3333 13.3333H29.9999" stroke="#D79D40" stroke-width="2" stroke-linecap="round" stroke-linejoin="round"/>
<path d="M23.3333 30H29.9999" stroke="#D79D40" stroke-width="2" stroke-linecap="round" stroke-linejoin="round"/>
<path d="M33.3333 5L30 8.33333V33.3333C30 34.3333 30.6667 35 31.6667 35H35C36 35 36.6667 34.3333 36.6667 33.3333V8.33333L33.3333 5Z" stroke="#D79D40" stroke-width="2" stroke-linecap="round" stroke-linejoin="round"/>
</svg>
