<svg width="40" height="40" viewBox="0 0 40 40" fill="none" xmlns="http://www.w3.org/2000/svg">
<g clip-path="url(#clip0_197_8)">
<path d="M20 0C14.6957 0 9.60859 2.10714 5.85786 5.85786C2.10714 9.60859 0 14.6957 0 20C0 25.3043 2.10714 30.3914 5.85786 34.1421C9.60859 37.8929 14.6957 40 20 40C25.3043 40 30.3914 37.8929 34.1421 34.1421C37.8929 30.3914 40 25.3043 40 20C40 14.6957 37.8929 9.60859 34.1421 5.85786C30.3914 2.10714 25.3043 0 20 0ZM5.1 10.815C5.9125 14.1375 11.43 17.165 14.3925 18.79C15.5925 19.4475 16.375 19.875 16.25 20C16.0483 20.2 15.8467 20.395 15.645 20.585C14.605 21.575 13.6775 22.4575 13.75 23.75C13.8375 25.335 15.295 25.81 16.785 26.2925C18.2275 26.7625 19.705 27.2425 20 28.75C20.205 29.7925 19.8125 31.22 19.45 32.55C18.9125 34.505 18.435 36.25 20 36.25C23.75 35 29.495 28.285 30 23.75C30.345 20.6425 25 18.75 21.25 17.5C20.055 17.1 19.3625 17.7025 18.775 18.21C18.345 18.585 17.97 18.9075 17.5 18.75C16.3875 18.38 11.25 13.75 13.75 12.5C15.7 11.525 16.13 12.0725 16.8175 12.955C17.0125 13.2025 17.225 13.475 17.5 13.75C19.0225 14.51 19.155 13.42 19.3075 12.1675C19.405 11.3625 19.51 10.49 20 10C21.085 8.915 23.1625 8.0225 25.07 7.2C26.85 6.435 28.4825 5.7325 29.0175 5C31.9906 6.78782 34.3652 9.41897 35.8397 12.5592C37.3142 15.6995 37.8221 19.2072 37.2989 22.6367C36.7756 26.0662 35.2449 29.2628 32.901 31.8205C30.5571 34.3782 27.506 36.1816 24.135 37.0015C20.7641 37.8214 17.2255 37.6209 13.9688 36.4255C10.712 35.23 7.8841 33.0936 5.84416 30.2875C3.80421 27.4814 2.64433 24.1323 2.51183 20.6656C2.37933 17.1989 3.2802 13.7686 5.1 10.815Z" fill="#D79D40"/>
</g>
<defs>
<clipPath id="clip0_197_8">
<rect width="40" height="40" fill="white"/>
</clipPath>
</defs>
</svg>
