<svg width="40" height="40" viewBox="0 0 40 40" fill="none" xmlns="http://www.w3.org/2000/svg">
<path d="M24.93 6.26995C25.0156 6.02538 25.0231 5.76025 24.9514 5.51122C24.8798 5.2622 24.7325 5.04161 24.53 4.87996L24.085 4.55745C22.5234 3.5245 20.7497 2.85553 18.895 2.59995C15.5375 2.15495 11.26 3.07245 7.09998 7.83245H4.46498C4.30054 7.83249 4.13773 7.86497 3.98586 7.92803C3.834 7.99109 3.69607 8.0835 3.57998 8.19995L0.364979 11.4175C0.131404 11.6518 0.000244141 11.9691 0.000244141 12.3C0.000244141 12.6308 0.131404 12.9481 0.364979 13.1825L6.79248 19.63C6.90859 19.7464 7.04653 19.8387 7.1984 19.9017C7.35026 19.9648 7.51306 19.9972 7.67748 19.9972C7.8419 19.9972 8.0047 19.9648 8.15656 19.9017C8.30843 19.8387 8.44637 19.7464 8.56248 19.63L11.7775 16.405C12.0112 16.1707 12.1424 15.8533 12.1425 15.5225V13.925L33.11 36.1075C33.2167 36.2523 33.3535 36.3724 33.511 36.4596C33.6684 36.5467 33.8428 36.5988 34.0223 36.6124C34.2017 36.6259 34.382 36.6005 34.5507 36.538C34.7195 36.4754 34.8727 36.3772 35 36.25L38.75 32.5C38.9767 32.2731 39.1075 31.9678 39.1154 31.6472C39.1233 31.3266 39.0077 31.0152 38.7925 30.7775L15.97 9.20245C17.8375 8.06245 20.4 7.10496 23.75 7.10496C24.0089 7.10514 24.2615 7.0249 24.4729 6.87533C24.6843 6.72575 24.844 6.51422 24.93 6.26995Z" fill="#D79D40"/>
</svg>
